<svg width="1536" height="1280" viewBox="0 0 1536 1280" fill="none" xmlns="http://www.w3.org/2000/svg">
<path d="M1536 1088V1216C1536 1233.33 1529.67 1248.33 1517 1261C1504.33 1273.67 1489.33 1280 1472 1280H541C523.667 1280 508.667 1273.67 496 1261C483.333 1248.33 477 1233.33 477 1216V1088C477 1070.67 483.333 1055.67 496 1043C508.667 1030.33 523.667 1024 541 1024H1472C1489.33 1024 1504.33 1030.33 1517 1043C1529.67 1055.67 1536 1070.67 1536 1088ZM1536 576V704C1536 721.333 1529.67 736.333 1517 749C1504.33 761.667 1489.33 768 1472 768H283C265.667 768 250.667 761.667 238 749C225.333 736.333 219 721.333 219 704V576C219 558.667 225.333 543.667 238 531C250.667 518.333 265.667 512 283 512H1472C1489.33 512 1504.33 518.333 1517 531C1529.67 543.667 1536 558.667 1536 576ZM1536 64V192C1536 209.333 1529.67 224.333 1517 237C1504.33 249.667 1489.33 256 1472 256H64C46.6667 256 31.6667 249.667 19 237C6.33333 224.333 0 209.333 0 192V64C0 46.6667 6.33333 31.6667 19 19C31.6667 6.33333 46.6667 0 64 0H1472C1489.33 0 1504.33 6.33333 1517 19C1529.67 31.6667 1536 46.6667 1536 64Z" fill="black"/>
</svg>
