<svg width="850" height="831" viewBox="0 0 850 831" fill="none" xmlns="http://www.w3.org/2000/svg">
<path d="M499.847 415.5L834.272 89.2062C844.268 79.438 849.884 66.1894 849.884 52.375C849.884 38.5606 844.268 25.312 834.272 15.5437C824.277 5.77547 810.719 0.28772 796.583 0.28772C782.447 0.28772 768.89 5.77547 758.894 15.5437L425 342.356L91.1058 15.5437C81.11 5.77547 67.5529 0.287732 53.4167 0.287732C39.2805 0.287732 25.7233 5.77547 15.7275 15.5437C5.73171 25.312 0.116148 38.5606 0.116148 52.375C0.116148 66.1894 5.73171 79.438 15.7275 89.2062L350.153 415.5L15.7275 741.794C10.7521 746.616 6.803 752.354 4.10803 758.675C1.41306 764.996 0.0255432 771.777 0.0255432 778.625C0.0255432 785.473 1.41306 792.253 4.10803 798.575C6.803 804.896 10.7521 810.634 15.7275 815.456C20.6623 820.318 26.5334 824.178 33.0021 826.811C39.4707 829.445 46.409 830.801 53.4167 830.801C60.4243 830.801 67.3626 829.445 73.8313 826.811C80.3 824.178 86.1711 820.318 91.1058 815.456L425 488.644L758.894 815.456C763.829 820.318 769.7 824.178 776.169 826.811C782.637 829.445 789.576 830.801 796.583 830.801C803.591 830.801 810.529 829.445 816.998 826.811C823.467 824.178 829.338 820.318 834.272 815.456C839.248 810.634 843.197 804.896 845.892 798.575C848.587 792.253 849.974 785.473 849.974 778.625C849.974 771.777 848.587 764.996 845.892 758.675C843.197 752.354 839.248 746.616 834.272 741.794L499.847 415.5Z" fill="black"/>
</svg>
