<svg width="1274" height="1245" viewBox="0 0 1274 1245" fill="none" xmlns="http://www.w3.org/2000/svg">
<path d="M934.398 747.622C921.598 741.404 838.398 704.101 825.598 697.884C812.798 691.667 799.999 691.667 787.199 704.101C774.399 716.536 748.799 753.839 735.999 766.273C729.599 778.708 716.799 778.708 703.999 772.491C659.199 753.839 614.399 728.97 575.999 697.884C543.999 666.798 511.999 629.494 486.399 592.191C479.999 579.757 486.399 567.322 492.799 561.105C499.199 554.888 505.599 542.453 518.399 536.236C524.799 530.019 531.199 517.584 531.199 511.367C537.599 505.15 537.599 492.715 531.199 486.498C524.799 480.281 492.799 405.674 479.999 374.588C473.599 331.067 460.799 331.067 447.999 331.067H415.999C403.199 331.067 383.999 343.502 377.599 349.719C339.199 387.022 319.999 430.543 319.999 480.281C326.399 536.236 345.599 592.191 383.999 641.929C454.399 741.405 543.999 822.228 652.799 871.966C684.799 884.401 710.399 896.835 742.399 903.052C774.399 915.487 806.398 915.487 844.798 909.27C889.598 903.052 927.998 871.966 953.598 834.663C966.398 809.794 966.398 784.925 959.998 760.056L934.398 747.622ZM1094.4 181.854C844.798 -60.618 441.599 -60.618 192 181.854C-12.8 380.805 -51.1999 685.449 89.5998 927.921L0 1245L339.199 1157.96C435.199 1207.7 537.599 1232.57 639.999 1232.57C991.998 1232.57 1273.6 959.007 1273.6 617.06C1280 455.412 1209.6 299.981 1094.4 181.854ZM921.598 1052.27C838.398 1102 742.399 1133.09 639.999 1133.09C543.999 1133.09 454.399 1108.22 371.199 1064.7L351.999 1052.27L153.6 1102L204.8 915.487L192 896.835C38.3999 648.146 115.2 337.285 364.799 181.854C614.399 26.4232 934.398 107.247 1088 343.502C1241.6 585.974 1171.2 903.052 921.598 1052.27Z" fill="white"/>
</svg>
